<svg xmlns="http://www.w3.org/2000/svg" width="48" height="48" viewBox="0 0 48 48" fill="none">
  <!-- Sun rays -->
  <g stroke="#FDB813" stroke-width="2" stroke-linecap="round">
    <line x1="24" y1="4" x2="24" y2="10"/>
    <line x1="24" y1="38" x2="24" y2="44"/>
    <line x1="4" y1="24" x2="10" y2="24"/>
    <line x1="38" y1="24" x2="44" y2="24"/>
    <line x1="9.86" y1="9.86" x2="14.12" y2="14.12"/>
    <line x1="33.88" y1="33.88" x2="38.14" y2="38.14"/>
    <line x1="9.86" y1="38.14" x2="14.12" y2="33.88"/>
    <line x1="33.88" y1="14.12" x2="38.14" y2="9.86"/>
  </g>
  <!-- Sun center -->
  <circle cx="24" cy="24" r="8" fill="#FDB813"/>
  <circle cx="24" cy="24" r="5" fill="#FFD700"/>
  <!-- Solar panel -->
  <rect x="16" y="30" width="16" height="10" rx="1.5" fill="#0F4C81"/>
  <rect x="17.5" y="31.5" width="6" height="3.5" rx="0.8" fill="#1E5A9E"/>
  <rect x="24.5" y="31.5" width="6" height="3.5" rx="0.8" fill="#1E5A9E"/>
  <rect x="17.5" y="36" width="6" height="3.5" rx="0.8" fill="#1E5A9E"/>
  <rect x="24.5" y="36" width="6" height="3.5" rx="0.8" fill="#1E5A9E"/>
</svg>
